<svg width="16" height="16" viewBox="0 0 16 16" fill="none" xmlns="http://www.w3.org/2000/svg">
<path d="M11.3333 7.66669C12.9901 7.66669 14.3333 6.32354 14.3333 4.66669C14.3333 3.00983 12.9901 1.66669 11.3333 1.66669C9.6764 1.66669 8.33325 3.00983 8.33325 4.66669C8.33325 6.32354 9.6764 7.66669 11.3333 7.66669Z" stroke="#1B80DD" stroke-width="1.33333" stroke-linecap="round" stroke-linejoin="round"/>
<path d="M4.00008 10.6667C5.28875 10.6667 6.33342 9.622 6.33342 8.33333C6.33342 7.04467 5.28875 6 4.00008 6C2.71142 6 1.66675 7.04467 1.66675 8.33333C1.66675 9.622 2.71142 10.6667 4.00008 10.6667Z" stroke="#1B80DD" stroke-width="1.33333" stroke-linecap="round" stroke-linejoin="round"/>
<path d="M9.66667 14C10.5871 14 11.3333 13.2538 11.3333 12.3334C11.3333 11.4129 10.5871 10.6667 9.66667 10.6667C8.74619 10.6667 8 11.4129 8 12.3334C8 13.2538 8.74619 14 9.66667 14Z" stroke="#1B80DD" stroke-width="1.33333" stroke-linecap="round" stroke-linejoin="round"/>
</svg>
